HIERARCHY
ROOT Hips
{
  OFFSET 0 0 0
  CHANNELS 6 Xposition Yposition Zposition Zrotation Yrotation Xrotation
  JOINT LeftThigh
  {
    OFFSET 8.409438 0 -5.917753
    CHANNELS 3 Zrotation Yrotation Xrotation
    JOINT LeftLeg
    {
      OFFSET 0 0 -42.358652
      CHANNELS 3 Zrotation Yrotation Xrotation
      JOINT LeftFoot
      {
        OFFSET 0 0 -39.357303
        CHANNELS 3 Zrotation Yrotation Xrotation
      }
    }
  }
  JOINT RightThigh
  {
    OFFSET -8.409438 0 -5.917753
    CHANNELS 3 Zrotation Yrotation Xrotation
    JOINT RightLeg
    {
      OFFSET 0 0 -42.358652
      CHANNELS 3 Zrotation Yrotation Xrotation
      JOINT RightFoot
      {
        OFFSET 0 0 -39.357303
        CHANNELS 3 Zrotation Yrotation Xrotation
      }
    }
  }
  JOINT SpineLow
  {
    OFFSET 0 0 4.719101
    CHANNELS 3 Zrotation Yrotation Xrotation
    JOINT SpineMid
    {
      OFFSET 0 0 12.899191
      CHANNELS 3 Zrotation Yrotation Xrotation
      JOINT Chest
      {
        OFFSET 0 0 12.899191
        CHANNELS 3 Zrotation Yrotation Xrotation
        JOINT LeftShoulder
        {
          OFFSET 7.550562 1.41573 9.438202
          CHANNELS 3 Zrotation Yrotation Xrotation
          JOINT LeftArm
          {
            OFFSET 9.155056 0 4.247191
            CHANNELS 3 Zrotation Yrotation Xrotation
            JOINT LeftForearm
            {
              OFFSET 0 0 25.771955
              CHANNELS 3 Zrotation Yrotation Xrotation
              JOINT LeftHand
              {
                OFFSET 0 0 25.197169
                CHANNELS 3 Zrotation Yrotation Xrotation
              }
            }
          }
        }
        JOINT RightShoulder
        {
          OFFSET -7.550562 1.41573 9.438202
          CHANNELS 3 Zrotation Yrotation Xrotation
          JOINT RightArm
          {
            OFFSET -9.155056 0 4.247191
            CHANNELS 3 Zrotation Yrotation Xrotation
            JOINT RightForearm
            {
              OFFSET 0 0 -25.771955
              CHANNELS 3 Zrotation Yrotation Xrotation
              JOINT RightHand
              {
                OFFSET 0 0 -25.197169
                CHANNELS 3 Zrotation Yrotation Xrotation
              }
            }
          }
        }
        JOINT Neck
        {
          OFFSET 0 0 15.101124
          CHANNELS 3 Zrotation Yrotation Xrotation
          JOINT Head
          {
            OFFSET 0 0 11.325843
            CHANNELS 3 Zrotation Yrotation Xrotation
            End Site
            {
              OFFSET 0 0 14.157303
            }
          }
        }
      }
    }
  }
}
MOTION
Frames: 17
Frame Time: 0.0
0.0  101.685394  0.0  -3.979697  -10.500035  -125.999623  16.846382  -21.399609  0.305372  -6.08321  11.620784  47.092895  -2.433418  4.291148  -0.159651  16.246045  -16.709561  -62.542056  2.675748  13.277808  6.062417  -21.682986  -17.905119  14.60084  -3.14688  -0.584525  5.30945  -8.682533  -0.898051  14.561475  -8.682533  -0.898051  14.561475  6.796637  32.792329  20.623751  136.470107  48.02045  -176.49041  -33.450551  -3.506612  105.414074  67.26768  -9.023564  36.794729  8.892187  -1.951654  19.940358  -5.391225  75.675944  -77.035702  26.958318  -47.221784  -122.974282  55.136599  0.946643  16.596568  5.107659  0.965075  1.453272  3.828384  0.736017  1.081951  
0.0  101.685394  0.0  -3.620344  -10.127389  -125.484944  16.030996  -20.239717  0.006169  -4.85742  11.373073  47.404922  -2.468524  4.272937  -0.189529  18.53157  -8.987183  -61.47982  -0.722959  10.107604  -4.092464  -29.722405  -16.855848  15.741699  -3.437399  -0.463173  5.226876  -9.445388  -0.516896  14.320016  -9.445389  -0.516896  14.320015  7.440792  32.617156  21.061853  138.246704  46.444259  -174.591314  -33.51764  -3.98122  105.78484  67.088138  -8.876612  36.867776  9.399472  -1.672054  18.90708  -1.395578  75.970401  -74.076332  26.998507  -47.440668  -122.849169  54.981933  1.160564  16.79296  5.455524  1.095887  1.605325  4.088674  0.836331  1.194286  
0.0  101.685394  0.0  -3.360024  -9.575121  -125.440808  15.733238  -19.533578  0.277565  -4.176527  11.20221  47.445379  -3.044344  4.440977  -0.397723  23.353919  -2.265539  -58.984769  -7.561701  10.721116  -14.322901  -36.144717  -14.447977  18.619268  -3.682346  -0.336169  5.158181  -10.084245  -0.130066  14.112925  -10.084246  -0.130066  14.112925  7.720686  32.224319  21.613539  139.873338  44.37618  -173.044085  -33.560835  -3.929382  106.350346  66.815583  -8.546421  36.856537  10.308075  -1.67647  18.448711  0.863489  76.397979  -71.963218  26.762839  -47.538877  -122.75486  54.991293  1.285401  16.824669  5.492747  1.182425  2.02667  4.115546  0.905132  1.509465  
0.0  101.685394  0.0  -3.250192  -9.585103  -125.706987  16.880052  -20.091262  0.797783  -4.300398  11.26991  47.365353  -4.326233  4.864027  -0.97309  25.538161  -0.249545  -59.497714  -14.382135  9.425659  -18.202571  -34.871926  -12.124318  20.295932  -3.733321  -0.26738  5.148038  -10.208304  0.06575  14.0743  -10.208303  0.06575  14.074299  7.55242  31.641703  22.097585  140.749639  42.144699  -172.036585  -33.719451  -3.251843  106.99463  66.619672  -8.017303  36.872266  10.513321  -1.804006  17.748094  4.505344  76.747632  -68.419084  26.342221  -47.378459  -122.526324  54.873322  1.279803  16.595078  5.148841  1.207869  2.430791  3.856756  0.926475  1.813001  
0.0  101.685394  0.0  -2.847967  -10.776503  -126.025797  19.519136  -21.819427  0.976529  -5.101349  12.208821  47.394465  -5.37269  5.336415  -1.594266  29.479712  4.729994  -63.664362  -24.20476  10.756519  -15.441116  -30.921851  -11.086861  22.48259  -3.485428  -0.249089  5.245634  -9.529463  0.076804  14.340018  -9.529463  0.076804  14.340017  6.534674  30.890265  21.627683  140.892494  39.889701  -171.514134  -34.041354  -2.116323  107.56372  66.657954  -7.193647  36.912147  10.062107  -2.008699  16.243486  8.881395  77.08294  -64.109092  26.273746  -47.135122  -122.717637  54.809099  1.207058  16.473399  4.515813  1.240777  2.39139  3.381934  0.948331  1.784419  
0.0  101.685394  0.0  -2.166832  -12.037671  -126.312416  21.636113  -23.427552  0.791145  -5.665975  13.842119  47.877459  -5.619226  5.531675  -1.936547  30.743583  4.013371  -68.391749  -26.415025  13.907831  -9.681437  -25.395832  -10.76127  24.312919  -3.198169  -0.238677  5.361073  -8.745292  0.058196  14.656009  -8.745293  0.058196  14.656009  5.320383  30.278822  20.919314  140.448066  37.971828  -171.053743  -34.74119  -0.992943  107.919018  66.94551  -6.256636  37.097054  9.546805  -2.119471  14.491664  12.622939  77.65451  -60.384746  26.313749  -46.956621  -123.241078  54.692615  1.058845  16.609221  3.871279  1.452361  2.089099  2.898379  1.102571  1.557613  
0.0  101.685394  0.0  -1.60942  -12.859155  -126.957632  22.525118  -24.396513  0.874213  -6.49418  15.788008  48.457929  -4.331385  5.515487  -1.857397  28.690426  -0.851755  -72.327362  -21.734735  16.823496  -1.066003  -20.706952  -12.526456  24.811468  -2.988146  -0.234539  5.519227  -8.172306  0.042552  15.08871  -8.172306  0.042552  15.088711  3.732906  30.074543  19.939174  140.265509  36.218991  -170.923749  -35.37077  -0.5011  108.438467  67.159629  -5.539646  37.642959  9.014314  -2.31067  13.059292  14.981747  78.72039  -58.118021  26.066498  -46.909906  -123.70443  54.604142  0.837751  16.969977  3.231241  1.70064  1.548615  2.418961  1.283719  1.15242  
0.0  101.685394  0.0  -1.501024  -13.048403  -126.63101  22.093263  -24.015685  0.044706  -6.948339  17.357395  49.213303  -1.978702  5.397197  -1.598842  24.426289  -7.508699  -75.080117  -11.660483  17.773857  8.757418  -18.855467  -14.384647  24.609786  -2.967537  -0.296714  5.539462  -8.130354  -0.128284  15.151744  -8.130353  -0.128284  15.151743  2.608444  30.141139  18.939376  139.901085  34.739227  -170.923504  -36.098263  -1.357015  108.88711  67.170431  -5.280556  38.298951  8.822024  -2.434766  12.122268  15.280488  80.276197  -58.040702  25.277674  -46.923251  -123.747026  54.593976  0.55353  17.288985  2.865296  2.053579  0.785436  2.146106  1.543909  0.579397  
0.0  101.685394  0.0  -1.331552  -13.133795  -127.179442  20.679256  -23.245211  -0.048776  -6.357141  17.948944  50.506079  0.215562  5.282667  -1.508198  19.946293  -15.726552  -76.222753  2.234295  16.373292  18.361368  -20.304372  -15.038089  24.596157  -3.064417  -0.280061  5.643294  -8.389043  -0.047829  15.432348  -8.389043  -0.047829  15.432349  2.458274  30.26068  18.388604  139.705574  33.603961  -170.742421  -36.456082  -3.404785  109.256903  67.195659  -5.680289  38.494922  9.071403  -2.701837  12.024883  12.702639  82.228175  -60.964548  24.034363  -46.848793  -123.361224  54.589949  0.309661  17.422432  2.843777  2.221446  0.223418  2.131753  1.667167  0.157205  
0.0  101.685394  0.0  -0.961604  -13.500667  -127.264111  20.151183  -21.888632  -0.808229  -5.544669  17.461097  51.802464  1.909809  5.229797  -1.340753  17.453448  -24.129358  -76.362337  14.947237  14.338809  25.471858  -22.824118  -13.649796  25.085922  -3.208959  -0.226053  5.591264  -8.769631  0.1253  15.282175  -8.769631  0.1253  15.282175  3.222417  30.58038  18.597751  140.42173  33.143646  -170.247185  -36.526216  -5.150315  109.65177  67.238359  -6.461197  38.667099  9.76233  -2.884975  12.831364  6.856827  84.115357  -67.111168  22.828113  -46.552247  -122.97338  54.547383  0.122045  17.392134  3.027933  2.293385  -0.029405  2.270757  1.719943  -0.03342  
0.0  101.685394  0.0  -0.611011  -13.938638  -127.005911  20.704123  -20.656596  -1.638555  -4.738255  15.803794  52.650309  1.638592  5.03569  -1.050272  15.468029  -27.798614  -74.759649  18.622023  13.060366  30.047522  -21.031216  -12.411535  24.759045  -3.445837  -0.183418  5.424388  -9.405487  0.271722  14.818554  -9.405487  0.271722  14.818553  4.963765  31.253284  19.409173  141.522075  33.205008  -169.457921  -36.375272  -6.326617  110.005489  66.927734  -6.996616  38.827485  10.916432  -2.70076  13.988332  2.50398  85.539266  -71.582417  22.083885  -45.947326  -122.8396  54.502676  -0.023973  17.208128  3.725692  2.399021  0.159293  2.793235  1.800316  0.104823  
0.0  101.685394  0.0  -0.326799  -14.387591  -126.778014  22.874069  -20.271241  -2.068969  -5.008776  13.516417  52.833  -0.624036  5.06618  -1.108263  14.996226  -28.681716  -74.170349  18.338105  14.102981  35.290063  -17.557261  -12.009385  24.628783  -3.676634  -0.092358  5.290683  -10.014807  0.54989  14.437393  -10.014807  0.54989  14.437392  6.906536  31.67047  20.14316  142.710973  33.89953  -168.7353  -35.900816  -6.7415  110.209723  66.470368  -7.281438  38.811394  12.106315  -2.658038  14.710671  7.544922  86.28725  -66.53299  21.810405  -44.902711  -122.749875  54.498336  -0.164318  16.960713  4.460839  2.226285  0.398492  3.343758  1.672728  0.282592  
0.0  101.685394  0.0  -0.269345  -14.536241  -126.536989  25.096954  -20.478746  -2.227352  -5.464368  11.036332  52.64262  -4.108928  5.340765  -1.363633  15.41175  -29.616996  -74.984161  19.289576  16.288921  42.151544  -14.497883  -12.160527  24.312754  -3.863902  0.015947  5.184214  -10.502946  0.867352  14.127063  -10.502947  0.867352  14.127063  8.456654  31.802946  20.766842  143.911318  35.01667  -168.248372  -35.345031  -6.31879  110.331455  66.371172  -7.532119  38.841736  12.858211  -2.948804  15.01478  24.946669  86.154692  -48.931243  21.816853  -43.292936  -122.373554  54.545173  -0.242768  16.715293  4.888731  1.779745  0.685142  3.664263  1.340392  0.499612  
0.0  101.685394  0.0  -0.335789  -14.305071  -126.273907  25.257578  -20.453304  -2.065631  -5.054836  9.464346  52.58017  -6.231748  5.60928  -1.58332  16.233316  -30.205327  -76.172414  19.670397  19.039276  49.120901  -11.351503  -11.472458  23.619618  -3.938648  0.087475  5.103581  -10.693212  1.064202  13.894372  -10.693212  1.064202  13.894373  8.962011  31.850082  21.141561  144.98696  36.330094  -167.895521  -34.859056  -5.341087  110.531877  66.653988  -7.670923  38.815748  12.525172  -3.203297  14.966889  42.19365  84.916829  -31.433644  21.93153  -41.231149  -121.636936  54.677332  -0.206767  16.563949  4.675127  1.260319  0.95941  3.504236  0.952647  0.709935  
0.0  101.685394  0.0  -0.34131  -14.158699  -126.354538  23.96719  -20.233436  -1.425398  -4.402198  9.485047  52.456775  -5.955357  5.639831  -1.565007  17.575455  -29.109282  -77.047375  17.790082  22.21557  55.454746  -8.138  -10.037356  23.05617  -3.871124  0.120033  5.13887  -10.501923  1.14395  13.987205  -10.501923  1.14395  13.987205  8.435434  31.801811  20.989445  145.954619  37.5837  -167.467302  -34.500298  -4.433772  110.843982  66.909346  -7.764453  38.569517  11.308184  -3.239421  14.394585  53.385325  83.008318  -19.99829  21.917756  -38.925502  -120.607376  54.861709  -0.130636  16.58688  4.012618  0.845718  1.097926  3.007901  0.641532  0.817918  
0.0  101.685394  0.0  -0.412984  -14.387403  -126.604055  22.746386  -20.364641  -0.731812  -3.978972  10.377463  52.27608  -4.663447  5.625257  -1.54252  19.256033  -26.007425  -77.814251  14.03734  25.020109  61.477891  -5.457747  -8.319293  22.740845  -3.788078  0.117708  5.316606  -10.271955  1.147589  14.474232  -10.271955  1.147589  14.474231  7.776654  31.662717  19.943725  146.883027  38.634585  -166.99607  -34.229471  -3.74323  111.289193  67.040906  -7.837213  38.14026  10.445289  -3.176226  13.173485  60.786822  80.933537  -12.14811  21.684971  -36.448423  -119.400307  54.958773  -0.071364  16.72102  3.539231  0.605502  0.937444  2.653477  0.459575  0.699598  
0.0  101.685394  0.0  -0.655442  -14.804362  -126.507507  22.196073  -20.74006  -0.540818  -4.163274  11.501308  51.916735  -3.177099  5.682908  -1.531728  20.095531  -22.319765  -78.19307  10.278308  26.340361  67.222939  -3.382442  -6.53704  22.364778  -3.824685  0.043153  5.424527  -10.38498  0.970287  14.778821  -10.38498  0.970287  14.77882  7.967424  31.757618  18.889999  147.878917  39.387219  -166.490096  -34.031402  -3.261231  111.809026  67.032577  -7.991216  37.574746  10.19366  -2.712658  12.075407  66.947669  78.734291  -5.589781  21.335767  -33.906854  -118.152851  54.90641  -0.031027  16.906704  3.546662  0.745762  0.905341  2.658861  0.564599  0.674695  
